<?xml version="1.0" encoding="UTF-8" standalone="no"?>
<svg
   xmlns:dc="http://purl.org/dc/elements/1.1/"
   xmlns:cc="http://creativecommons.org/ns#"
   xmlns:rdf="http://www.w3.org/1999/02/22-rdf-syntax-ns#"
   xmlns:svg="http://www.w3.org/2000/svg"
   xmlns="http://www.w3.org/2000/svg"
   xmlns:sodipodi="http://sodipodi.sourceforge.net/DTD/sodipodi-0.dtd"
   xmlns:inkscape="http://www.inkscape.org/namespaces/inkscape"
   version="1.0"
   id="Calque_1"
   x="0px"
   y="0px"
   width="774.5px"
   height="317.3px"
   viewBox="0 0 774.5 317.3"
   style="enable-background:new 0 0 774.5 317.3;"
   xml:space="preserve"
   sodipodi:docname="blanc-logo-patinage-quebec.svg"
   inkscape:version="1.0.1 (3bc2e813f5, 2020-09-07)"><metadata
   id="metadata941"><rdf:RDF><cc:Work
       rdf:about=""><dc:format>image/svg+xml</dc:format><dc:type
         rdf:resource="http://purl.org/dc/dcmitype/StillImage" /><dc:title></dc:title></cc:Work></rdf:RDF></metadata><defs
   id="defs939" /><sodipodi:namedview
   pagecolor="#ffffff"
   bordercolor="#666666"
   borderopacity="1"
   objecttolerance="10"
   gridtolerance="10"
   guidetolerance="10"
   inkscape:pageopacity="0"
   inkscape:pageshadow="2"
   inkscape:window-width="1920"
   inkscape:window-height="991"
   id="namedview937"
   showgrid="false"
   inkscape:zoom="1.2704971"
   inkscape:cx="437.34005"
   inkscape:cy="218.04999"
   inkscape:window-x="-9"
   inkscape:window-y="-9"
   inkscape:window-maximized="1"
   inkscape:current-layer="Calque_1" />

<style
   type="text/css"
   id="style910">

	.st0{fill:#004687;}

	.st1{fill:#F0B600;}

</style>

<path
   class="st0"
   d="M473.4,317.3c-8.1,0-12-1.5-17.1-7.5c-3.9,1.5-8.2,2.2-12.5,2.2c-14.7,0-29.9-8.4-29.9-26.5   c0-17,12.6-27.1,29.9-27.1c17.3,0,29.9,10.1,29.9,27.1c0,10.5-5,17.6-12.2,21.9c1.8,2,4,4.1,11.9,4.1V317.3z M444.6,292.8   c6.5,1.2,9.8,3.4,13.3,10c5.7-3.3,9.4-9.3,9.4-18.5c0-11.4-8.8-20.8-23.6-20.8c-14.8,0-23.6,9.4-23.6,20.8c0,15.5,11,22.1,23.6,22.1   c3.2,0,6.3-0.4,9.2-1.3c-2.2-3.6-4.1-5.4-8.4-6.5V292.8z"
   id="path912"
   style="stroke:none;fill:#ffffff;fill-opacity:1" />

<path
   class="st0"
   d="M536.3,289.7c0,18.5-14.4,22.3-26.3,22.3c-11.9,0-26.3-3.8-26.3-22.3v-30h6.2v30c0,11.7,7.5,17.1,20.1,17.1   c12.6,0,20.1-5.3,20.1-17.1v-30h6.2V289.7z"
   id="path914"
   style="stroke:none;fill:#ffffff;fill-opacity:1" />

<path
   class="st0"
   d="M549.8,259.7h45.5v5.5H556v16.3h32.9v5.5H556v18.3h40.1v5.5h-46.3V259.7z"
   id="path916"
   style="stroke:none;fill:#ffffff;fill-opacity:1" />

<polygon
   class="st0"
   points="590.3,246.5 575.1,255.3 566.4,255.3 577.6,246.5 "
   id="polygon918"
   style="stroke:none;fill:#ffffff;fill-opacity:1" />

<path
   class="st0"
   d="M549.8,259.7h45.5v5.5H556v16.3h32.9v5.5H556v18.3h40.1v5.5h-46.3V259.7z"
   id="path920"
   style="stroke:none;fill:#ffffff;fill-opacity:1" />

<path
   class="st0"
   d="M604.4,259.7H634c5.8,0,19.8,0,19.8,13.3c0,7-4.6,9.2-7.8,10.7c3.1,1.3,9.5,4.1,9.5,12.6   c0,13.8-14.4,14.3-25,14.3h-26.1V259.7z M610.6,281.4h21.7c7.2,0,15.3-1.2,15.3-8.4c0-8.1-8.3-8.2-17.4-8.2h-19.6V281.4z    M610.6,305.2h23.9c7.4,0,14.7-1.3,14.7-9.1c0-7.1-5.6-9.6-14-9.6h-24.6V305.2z"
   id="path922"
   style="stroke:none;fill:#ffffff;fill-opacity:1" />

<path
   class="st0"
   d="M666.8,259.7h45.5v5.5H673v16.3h32.9v5.5H673v18.3h40.2v5.5h-46.3V259.7z"
   id="path924"
   style="stroke:none;fill:#ffffff;fill-opacity:1" />

<path
   class="st0"
   d="M774.5,297.1c-5.5,10.6-15,14.8-27.4,14.8c-19.8,0-29.1-11.9-29.1-26.7c0-17.5,11.9-26.9,29.1-26.9   c11,0,22.1,4.2,26.7,14.6l-5.3,2.5c-3.6-8.4-11.5-11.9-21.3-11.9c-14.6,0-22.8,7.9-22.8,22.5c0,11.7,7.9,20.4,23.4,20.4   c10.1,0,17.1-4.2,21.3-12L774.5,297.1z"
   id="path926"
   style="stroke:none;fill:#ffffff;fill-opacity:1" />

<path
   class="st0"
   d="M51.6,275.9c0-16.4-15.1-16.4-23.1-16.4H0v51.4h12.6v-18.7h15.9C36.5,292.2,51.6,292.2,51.6,275.9z M30.5,280.9   h-18v-10.2h18c6,0,8.5,0.7,8.5,5.1C39,280.2,36.5,280.9,30.5,280.9z M82.7,260.4l-0.4-0.9H69.5l-0.4,0.9l-23.8,48.3l-1.1,2.3h13.5   l0.4-0.9l4.7-10.2h25.8l4.6,10.2l0.4,0.9h13.5l-1.1-2.3L82.7,260.4z M68.2,288.6l7.6-16.3l7.6,16.3H68.2z M96.4,270.7H118v40.2h12.6   v-40.2h21.6v-11.2H96.4V270.7z M156.6,310.9h12.6v-51.4h-12.6V310.9z M220.3,291.9L190.8,260l-0.5-0.5h-12.2v51.4h12.2v-33.7   l30.9,33.2l0.5,0.5h10.9v-51.4h-12.2V291.9z M273.1,260.4l-0.4-0.9h-12.7l-0.4,0.9l-23.8,48.3l-1.1,2.3h13.5l0.4-0.9l4.7-10.2h25.8   l4.6,10.2l0.4,0.9h13.5l-1.1-2.3L273.1,260.4z M258.7,288.6l7.6-16.3l7.6,16.3H258.7z M323.8,293.7H340c-2.4,4.7-6.9,6.9-14.4,6.9   c-10.2,0-16.4-5.9-16.4-15.7c0-3.6,1.2-15.4,17.2-15.4c10,0,12.3,4.9,13.4,7.2l0.4,0.9h12.5l-0.4-1.9c-2.1-11-12.2-17.5-27.1-17.5   c-21.1,0-28.6,14.5-28.6,27c0,19.8,14.9,26.8,28.9,26.8c8.5,0,13.7-2.6,17.3-4.8l1.2,3.2l0.4,1h8.4V283h-28.9V293.7z M371.4,299.7   V290h29.2v-11.2h-29.2v-8.1h33.9v-11.2h-46.4v51.4H406v-11.2H371.4z"
   id="path928"
   style="fill:#ffffff;fill-opacity:1;stroke:none" />

<polygon
   class="st0"
   points="590.3,246.5 575.1,255.3 566.4,255.3 577.6,246.5 "
   id="polygon930"
   style="stroke:none;fill:#ffffff;fill-opacity:1" />

<path
   class="st0"
   d="M383.1,71.7c-58.5,44-116.4,101.7-162.6,154c81-76.3,140.1-126.2,186.1-156.8c-0.6,0-1.2,0-1.9,0   C397.9,68.9,390.7,69.8,383.1,71.7z M543.4,0c-37.7,0-81.1,18.5-125.3,47.1c4.7-0.7,9.4-1,14-1c4.1,0,7.8,0.4,11.2,1   C469,34.1,490.1,28.5,509,28.5c56.2,0,26,91.5-48.7,198.8h57C578.7,155.2,640.8,0,543.4,0z"
   id="path932"
   style="stroke:none;fill:#ffffff;fill-opacity:1" />

<path
   class="st1"
   d="M174.6,226c72.2-81.6,179.9-179.9,257.5-179.9c77.6,0,28.1,123.7-20.7,181.2h-45.5   c59.5-85.6,83.6-158.5,38.8-158.5C359.8,68.9,300.3,107.7,174.6,226z"
   id="path934"
   style="stroke:none;fill:#ffffff;fill-opacity:1" />

</svg>
