<svg width="40" height="40" viewBox="0 0 40 40" fill="none" xmlns="http://www.w3.org/2000/svg">
<path d="M26 3H13C8.58172 3 5 6.58172 5 11V29C5 33.4183 8.58172 37 13 37H26C30.4183 37 34 33.4183 34 29V11C34 6.58172 30.4183 3 26 3Z" stroke="#676767"/>
<path d="M9 30V11C9 8.79086 10.7909 7 13 7H26C28.2091 7 30 8.79086 30 11V30C30 32.2091 28.2091 34 26 34H13C10.7909 34 9 32.2091 9 30Z" stroke="#676767"/>
<path d="M18.5 29.5H20.5" stroke="#676767" stroke-linecap="round"/>
<path d="M13.0518 26L12.2842 24.8516L11.5107 26H10.6348L11.8242 24.3623L10.6904 22.8301H11.5781L12.2842 23.8672L12.9873 22.8301H13.8809L12.7471 24.3535L13.9453 26H13.0518ZM17.3291 25.0742C17.3291 25.3809 17.2031 25.6221 16.9512 25.7979C16.7012 25.9717 16.3545 26.0586 15.9111 26.0586C15.4756 26.0586 15.1416 25.9902 14.9092 25.8535C14.6787 25.7148 14.5254 25.5 14.4492 25.209L15.1729 25.1006C15.2139 25.251 15.2842 25.3574 15.3838 25.4199C15.4854 25.4824 15.6611 25.5137 15.9111 25.5137C16.1416 25.5137 16.3096 25.4844 16.415 25.4258C16.5205 25.3672 16.5732 25.2754 16.5732 25.1504C16.5732 25.0488 16.5303 24.9688 16.4443 24.9102C16.3604 24.8496 16.2168 24.7988 16.0137 24.7578C15.5488 24.666 15.2354 24.5811 15.0732 24.5029C14.9111 24.4229 14.7871 24.3203 14.7012 24.1953C14.6172 24.0684 14.5752 23.9131 14.5752 23.7295C14.5752 23.4268 14.6914 23.1914 14.9238 23.0234C15.1582 22.8535 15.4893 22.7686 15.917 22.7686C16.2939 22.7686 16.5967 22.8418 16.8252 22.9883C17.0557 23.1348 17.1992 23.3467 17.2559 23.624L16.5264 23.7002C16.5029 23.5713 16.4453 23.4756 16.3535 23.4131C16.2617 23.3486 16.1162 23.3164 15.917 23.3164C15.7217 23.3164 15.5752 23.3418 15.4775 23.3926C15.3799 23.4414 15.3311 23.5244 15.3311 23.6416C15.3311 23.7334 15.3682 23.8066 15.4424 23.8613C15.5186 23.9141 15.6455 23.958 15.8232 23.9932C16.0713 24.0439 16.291 24.0967 16.4824 24.1514C16.6758 24.2041 16.8301 24.2676 16.9453 24.3418C17.0625 24.416 17.1553 24.5117 17.2236 24.6289C17.2939 24.7441 17.3291 24.8926 17.3291 25.0742ZM19.5322 26.0586C19.04 26.0586 18.6602 25.9141 18.3926 25.625C18.125 25.334 17.9912 24.9258 17.9912 24.4004C17.9912 24.0488 18.0537 23.752 18.1787 23.5098C18.3057 23.2676 18.4854 23.084 18.7178 22.959C18.9502 22.834 19.2256 22.7715 19.5439 22.7715C20.0068 22.7715 20.3662 22.9258 20.6221 23.2344C20.8779 23.543 21.0059 23.9814 21.0059 24.5498V24.5732H18.8555C18.8555 24.8604 18.9189 25.0879 19.0459 25.2559C19.1748 25.4238 19.3506 25.5078 19.5732 25.5078C19.7178 25.5078 19.8457 25.4775 19.957 25.417C20.0684 25.3545 20.1436 25.2588 20.1826 25.1299L20.959 25.1973C20.8516 25.4727 20.6729 25.6855 20.4229 25.8359C20.1729 25.9844 19.876 26.0586 19.5322 26.0586ZM19.5322 23.29C19.3311 23.29 19.1709 23.3584 19.0518 23.4951C18.9326 23.6299 18.8691 23.8174 18.8613 24.0576H20.209C20.1953 23.8232 20.1279 23.6367 20.0068 23.498C19.8877 23.3594 19.7295 23.29 19.5322 23.29ZM23.7158 26V24.1865C23.7158 23.9111 23.6777 23.709 23.6016 23.5801C23.5273 23.4512 23.3984 23.3867 23.2148 23.3867C23.0117 23.3867 22.8486 23.4736 22.7256 23.6475C22.6045 23.8193 22.5439 24.0371 22.5439 24.3008V26H21.7207V23.5391C21.7207 23.3691 21.7178 23.2305 21.7119 23.123C21.708 23.0137 21.7031 22.916 21.6973 22.8301H22.4824C22.4883 22.8672 22.4961 22.9668 22.5059 23.1289C22.5156 23.2891 22.5205 23.3994 22.5205 23.46H22.5322C22.6436 23.2178 22.7832 23.042 22.9512 22.9326C23.1191 22.8232 23.3193 22.7686 23.5518 22.7686C24.208 22.7686 24.5361 23.1748 24.5361 23.9873V26H23.7158ZM28.1396 25.0742C28.1396 25.3809 28.0137 25.6221 27.7617 25.7979C27.5117 25.9717 27.165 26.0586 26.7217 26.0586C26.2861 26.0586 25.9521 25.9902 25.7197 25.8535C25.4893 25.7148 25.3359 25.5 25.2598 25.209L25.9834 25.1006C26.0244 25.251 26.0947 25.3574 26.1943 25.4199C26.2959 25.4824 26.4717 25.5137 26.7217 25.5137C26.9521 25.5137 27.1201 25.4844 27.2256 25.4258C27.3311 25.3672 27.3838 25.2754 27.3838 25.1504C27.3838 25.0488 27.3408 24.9688 27.2549 24.9102C27.1709 24.8496 27.0273 24.7988 26.8242 24.7578C26.3594 24.666 26.0459 24.5811 25.8838 24.5029C25.7217 24.4229 25.5977 24.3203 25.5117 24.1953C25.4277 24.0684 25.3857 23.9131 25.3857 23.7295C25.3857 23.4268 25.502 23.1914 25.7344 23.0234C25.9688 22.8535 26.2998 22.7686 26.7275 22.7686C27.1045 22.7686 27.4072 22.8418 27.6357 22.9883C27.8662 23.1348 28.0098 23.3467 28.0664 23.624L27.3369 23.7002C27.3135 23.5713 27.2559 23.4756 27.1641 23.4131C27.0723 23.3486 26.9268 23.3164 26.7275 23.3164C26.5322 23.3164 26.3857 23.3418 26.2881 23.3926C26.1904 23.4414 26.1416 23.5244 26.1416 23.6416C26.1416 23.7334 26.1787 23.8066 26.2529 23.8613C26.3291 23.9141 26.4561 23.958 26.6338 23.9932C26.8818 24.0439 27.1016 24.0967 27.293 24.1514C27.4863 24.2041 27.6406 24.2676 27.7559 24.3418C27.873 24.416 27.9658 24.5117 28.0342 24.6289C28.1045 24.7441 28.1396 24.8926 28.1396 25.0742Z" fill="#676767"/>
<path d="M15 16L18.5 21L24.5 10" stroke="black" stroke-linecap="round" stroke-linejoin="round"/>
</svg>
