<svg width="95" height="114" viewBox="0 0 95 114" fill="none" xmlns="http://www.w3.org/2000/svg">
<path d="M44 88.5H49.5" stroke="#676767" stroke-width="2" stroke-linecap="round" stroke-linejoin="round"/>
<path d="M64.5 2H31C14.9837 2 2 14.9837 2 31V83.5C2 99.5163 14.9837 112.5 31 112.5H64.5C80.5163 112.5 93.5 99.5163 93.5 83.5V31C93.5 14.9837 80.5163 2 64.5 2Z" stroke="#676767" stroke-width="3" stroke-linejoin="round"/>
<path d="M66 19.5H28C21.9249 19.5 17 24.4249 17 30.5V87C17 93.0751 21.9249 98 28 98H66C72.0751 98 77 93.0751 77 87V30.5C77 24.4249 72.0751 19.5 66 19.5Z" stroke="#676767" stroke-width="2" stroke-linejoin="round"/>
<path d="M34.6035 80L33.0684 77.7031L31.5215 80H29.7695L32.1484 76.7246L29.8809 73.6602H31.6562L33.0684 75.7344L34.4746 73.6602H36.2617L33.9941 76.707L36.3906 80H34.6035ZM43.1582 78.1484C43.1582 78.7617 42.9062 79.2441 42.4023 79.5957C41.9023 79.9434 41.209 80.1172 40.3223 80.1172C39.4512 80.1172 38.7832 79.9805 38.3184 79.707C37.8574 79.4297 37.5508 79 37.3984 78.418L38.8457 78.2012C38.9277 78.502 39.0684 78.7148 39.2676 78.8398C39.4707 78.9648 39.8223 79.0273 40.3223 79.0273C40.7832 79.0273 41.1191 78.9688 41.3301 78.8516C41.541 78.7344 41.6465 78.5508 41.6465 78.3008C41.6465 78.0977 41.5605 77.9375 41.3887 77.8203C41.2207 77.6992 40.9336 77.5977 40.5273 77.5156C39.5977 77.332 38.9707 77.1621 38.6465 77.0059C38.3223 76.8457 38.0742 76.6406 37.9023 76.3906C37.7344 76.1367 37.6504 75.8262 37.6504 75.459C37.6504 74.8535 37.8828 74.3828 38.3477 74.0469C38.8164 73.707 39.4785 73.5371 40.334 73.5371C41.0879 73.5371 41.6934 73.6836 42.1504 73.9766C42.6113 74.2695 42.8984 74.6934 43.0117 75.248L41.5527 75.4004C41.5059 75.1426 41.3906 74.9512 41.207 74.8262C41.0234 74.6973 40.7324 74.6328 40.334 74.6328C39.9434 74.6328 39.6504 74.6836 39.4551 74.7852C39.2598 74.8828 39.1621 75.0488 39.1621 75.2832C39.1621 75.4668 39.2363 75.6133 39.3848 75.7227C39.5371 75.8281 39.791 75.916 40.1465 75.9863C40.6426 76.0879 41.082 76.1934 41.4648 76.3027C41.8516 76.4082 42.1602 76.5352 42.3906 76.6836C42.625 76.832 42.8105 77.0234 42.9473 77.2578C43.0879 77.4883 43.1582 77.7852 43.1582 78.1484ZM47.5645 80.1172C46.5801 80.1172 45.8203 79.8281 45.2852 79.25C44.75 78.668 44.4824 77.8516 44.4824 76.8008C44.4824 76.0977 44.6074 75.5039 44.8574 75.0195C45.1113 74.5352 45.4707 74.168 45.9355 73.918C46.4004 73.668 46.9512 73.543 47.5879 73.543C48.5137 73.543 49.2324 73.8516 49.7441 74.4688C50.2559 75.0859 50.5117 75.9629 50.5117 77.0996V77.1465H46.2109C46.2109 77.7207 46.3379 78.1758 46.5918 78.5117C46.8496 78.8477 47.2012 79.0156 47.6465 79.0156C47.9355 79.0156 48.1914 78.9551 48.4141 78.834C48.6367 78.709 48.7871 78.5176 48.8652 78.2598L50.418 78.3945C50.2031 78.9453 49.8457 79.3711 49.3457 79.6719C48.8457 79.9688 48.252 80.1172 47.5645 80.1172ZM47.5645 74.5801C47.1621 74.5801 46.8418 74.7168 46.6035 74.9902C46.3652 75.2598 46.2383 75.6348 46.2227 76.1152H48.918C48.8906 75.6465 48.7559 75.2734 48.5137 74.9961C48.2754 74.7188 47.959 74.5801 47.5645 74.5801ZM55.9316 80V76.373C55.9316 75.8223 55.8555 75.418 55.7031 75.1602C55.5547 74.9023 55.2969 74.7734 54.9297 74.7734C54.5234 74.7734 54.1973 74.9473 53.9512 75.2949C53.709 75.6387 53.5879 76.0742 53.5879 76.6016V80H51.9414V75.0781C51.9414 74.7383 51.9355 74.4609 51.9238 74.2461C51.916 74.0273 51.9062 73.832 51.8945 73.6602H53.4648C53.4766 73.7344 53.4922 73.9336 53.5117 74.2578C53.5312 74.5781 53.541 74.7988 53.541 74.9199H53.5645C53.7871 74.4355 54.0664 74.084 54.4023 73.8652C54.7383 73.6465 55.1387 73.5371 55.6035 73.5371C56.916 73.5371 57.5723 74.3496 57.5723 75.9746V80H55.9316ZM64.7793 78.1484C64.7793 78.7617 64.5273 79.2441 64.0234 79.5957C63.5234 79.9434 62.8301 80.1172 61.9434 80.1172C61.0723 80.1172 60.4043 79.9805 59.9395 79.707C59.4785 79.4297 59.1719 79 59.0195 78.418L60.4668 78.2012C60.5488 78.502 60.6895 78.7148 60.8887 78.8398C61.0918 78.9648 61.4434 79.0273 61.9434 79.0273C62.4043 79.0273 62.7402 78.9688 62.9512 78.8516C63.1621 78.7344 63.2676 78.5508 63.2676 78.3008C63.2676 78.0977 63.1816 77.9375 63.0098 77.8203C62.8418 77.6992 62.5547 77.5977 62.1484 77.5156C61.2188 77.332 60.5918 77.1621 60.2676 77.0059C59.9434 76.8457 59.6953 76.6406 59.5234 76.3906C59.3555 76.1367 59.2715 75.8262 59.2715 75.459C59.2715 74.8535 59.5039 74.3828 59.9688 74.0469C60.4375 73.707 61.0996 73.5371 61.9551 73.5371C62.709 73.5371 63.3145 73.6836 63.7715 73.9766C64.2324 74.2695 64.5195 74.6934 64.6328 75.248L63.1738 75.4004C63.127 75.1426 63.0117 74.9512 62.8281 74.8262C62.6445 74.6973 62.3535 74.6328 61.9551 74.6328C61.5645 74.6328 61.2715 74.6836 61.0762 74.7852C60.8809 74.8828 60.7832 75.0488 60.7832 75.2832C60.7832 75.4668 60.8574 75.6133 61.0059 75.7227C61.1582 75.8281 61.4121 75.916 61.7676 75.9863C62.2637 76.0879 62.7031 76.1934 63.0859 76.3027C63.4727 76.4082 63.7812 76.5352 64.0117 76.6836C64.2461 76.832 64.4316 77.0234 64.5684 77.2578C64.709 77.4883 64.7793 77.7852 64.7793 78.1484Z" fill="#676767"/>
<path d="M32.5 48.5L44 60.5L64.5 28.5" stroke="#131313" stroke-width="3" stroke-linecap="square" stroke-linejoin="round"/>
</svg>
